<svg xmlns="http://www.w3.org/2000/svg" xmlns:xlink="http://www.w3.org/1999/xlink" width="264" height="261" viewBox="0 0 264 261"><defs><path id="halftone-circle-a" d="M.438.158h5.21V5.21H.438z"/><path id="halftone-circle-c" d="M.209.158h5.21V5.21H.209z"/></defs><g fill="none" fill-rule="evenodd"><path fill="#B8E3F2" d="M38.23 197.232c.006.096.013.192.03.29.01.067.026.131.043.196.099.419.286.848.607 1.27a3.354 3.354 0 0 0 1.464.654c.099.016.195.024.29.03.053.003.101.015.153.015.027 0 .052-.007.078-.008.1-.003.196-.015.293-.029.07-.01.141-.017.21-.032.097-.022.19-.055.282-.088.062-.021.125-.038.185-.065.1-.043.19-.097.282-.152.047-.028.097-.05.143-.081a2.63 2.63 0 0 0 .36-.297l.01-.009a2.59 2.59 0 0 0 .307-.37c.03-.044.052-.093.08-.138.055-.093.111-.186.155-.286.026-.058.043-.121.065-.183.033-.093.065-.186.088-.284.015-.068.023-.139.033-.21.014-.096.026-.192.03-.292 0-.026.008-.05.008-.078 0-.051-.013-.1-.016-.152a2.576 2.576 0 0 0-.028-.29 2.784 2.784 0 0 0-.044-.196 3.345 3.345 0 0 0-.607-1.271 3.347 3.347 0 0 0-1.27-.61 2.857 2.857 0 0 0-.194-.044 2.618 2.618 0 0 0-.292-.029c-.05-.003-.1-.016-.15-.016-.028 0-.053.007-.08.008-.1.003-.196.015-.293.03-.07.01-.14.016-.208.031a2.518 2.518 0 0 0-.285.089c-.061.021-.124.038-.183.063-.1.044-.192.1-.284.155-.047.027-.096.049-.14.08a2.55 2.55 0 0 0-.364.299l-.008.006a2.612 2.612 0 0 0-.306.372c-.03.043-.051.09-.079.135a2.592 2.592 0 0 0-.156.287c-.026.06-.042.122-.064.182a2.5 2.5 0 0 0-.09.286c-.015.068-.022.138-.032.208a2.631 2.631 0 0 0-.03.293c0 .027-.008.051-.008.078 0 .052.013.101.016.153m-26.064-60.72a2.605 2.605 0 1 0-.006 5.211 2.605 2.605 0 0 0 .006-5.21m5.21 9.77a2.605 2.605 0 1 0-.006 5.21 2.605 2.605 0 0 0 .007-5.21m-5.217-23.447a2.605 2.605 0 1 0 .007-5.21 2.605 2.605 0 0 0-.007 5.21m-4.553 4.559a2.605 2.605 0 1 0-.007 5.21 2.605 2.605 0 0 0 .007-5.21m9.763 5.21a2.605 2.605 0 1 0 .006-5.21 2.605 2.605 0 0 0-.006 5.21m-5.21-28.656a2.606 2.606 0 1 0 .006-5.212 2.606 2.606 0 0 0-.007 5.212m5.211 9.118a2.605 2.605 0 1 0 .007-5.21 2.605 2.605 0 0 0-.007 5.21M31.7 180.149a2.605 2.605 0 1 0 .007-5.211 2.605 2.605 0 0 0-.007 5.21m-9.7-5.197h-.002c-.04-.002-.08-.013-.12-.013-1.406-.001-2.546 1.16-2.549 2.596-.001 1.435 1.136 2.6 2.54 2.602h.002c.04.002.08.013.122.013 1.405.002 2.545-1.16 2.546-2.596.003-1.435-1.135-2.6-2.54-2.602m14.267 9.757a2.605 2.605 0 1 0-.007 5.21 2.605 2.605 0 0 0 .007-5.21M21.93 161.262a2.605 2.605 0 1 0 .007-5.21 2.605 2.605 0 0 0-.007 5.21m-9.259-5.15a2.537 2.537 0 0 0-.54-.06c-1.419-.003-2.57 1.16-2.572 2.595a2.588 2.588 0 0 0 2.1 2.554c.174.038.354.06.54.06 1.418.003 2.569-1.16 2.57-2.595a2.589 2.589 0 0 0-2.098-2.554m19.028 5.15a2.606 2.606 0 1 0 .006-5.212 2.606 2.606 0 0 0-.006 5.212m-5.203 4.559a2.605 2.605 0 1 0-.007 5.21 2.605 2.605 0 0 0 .007-5.21m9.762 5.21a2.605 2.605 0 1 0 .007-5.21 2.605 2.605 0 0 0-.007 5.21M21.93 142.374a2.605 2.605 0 1 0 .008-5.21 2.605 2.605 0 0 0-.008 5.21m9.769 0a2.605 2.605 0 1 0 .007-5.21 2.605 2.605 0 0 0-.007 5.21m-5.21 9.118a2.605 2.605 0 1 0 .007-5.21 2.605 2.605 0 0 0-.007 5.21m9.769 0a2.605 2.605 0 1 0 .007-5.21 2.605 2.605 0 0 0-.007 5.21m-14.321-33.866a2.605 2.605 0 1 0-.007 5.21 2.605 2.605 0 0 0 .007-5.21m9.77 0a2.605 2.605 0 1 0-.008 5.21 2.605 2.605 0 0 0 .007-5.21m-5.21 9.769a2.605 2.605 0 1 0-.007 5.21 2.605 2.605 0 0 0 .007-5.21m9.769 0a2.605 2.605 0 1 0-.006 5.21 2.605 2.605 0 0 0 .006-5.21M21.93 103.949a2.605 2.605 0 1 0 .007-5.21 2.605 2.605 0 0 0-.007 5.21m9.776-5.21a2.605 2.605 0 1 0-.006 5.21 2.605 2.605 0 0 0 .006-5.21m-5.21 9.117a2.605 2.605 0 1 0-.007 5.21 2.605 2.605 0 0 0 .007-5.21m9.77 0a2.605 2.605 0 1 0-.008 5.211 2.605 2.605 0 0 0 .007-5.21M21.93 84.41a2.605 2.605 0 1 0 .006-5.21 2.605 2.605 0 0 0-.006 5.21m9.769 0a2.606 2.606 0 1 0 .006-5.212 2.606 2.606 0 0 0-.006 5.212m-5.21 9.77a2.606 2.606 0 1 0 .005-5.212 2.606 2.606 0 0 0-.005 5.211m9.776-5.21a2.605 2.605 0 1 0-.006 5.211 2.605 2.605 0 0 0 .006-5.21m-4.566-23.447a2.606 2.606 0 1 0 .006-5.211 2.606 2.606 0 0 0-.006 5.211m4.559 9.77a2.606 2.606 0 1 0 .006-5.212 2.606 2.606 0 0 0-.006 5.211m14.335 138.072a2.606 2.606 0 1 0-.006 5.211 2.606 2.606 0 0 0 .006-5.21m-9.77 0a2.605 2.605 0 1 0-.005 5.21 2.605 2.605 0 0 0 .006-5.21m14.328 9.768a2.605 2.605 0 1 0-.007 5.21 2.605 2.605 0 0 0 .007-5.21m-25.36-24.144c2.786 2.126 5.942-1.022 3.82-3.814-2.785-2.126-5.941 1.023-3.82 3.814m20.794.698a2.606 2.606 0 1 0 .006-5.211 2.606 2.606 0 0 0-.006 5.211m-4.552 3.908a2.606 2.606 0 1 0-.006 5.211 2.606 2.606 0 0 0 .006-5.211m9.111 5.21a2.605 2.605 0 1 0 .006-5.21 2.605 2.605 0 0 0-.006 5.21M40.817 180.15a2.605 2.605 0 1 0 .007-5.21 2.605 2.605 0 0 0-.007 5.21m9.77 0a2.605 2.605 0 1 0 .006-5.21 2.605 2.605 0 0 0-.007 5.21m-4.559 9.769a2.605 2.605 0 1 0 .007-5.21 2.605 2.605 0 0 0-.007 5.21m9.118 0a2.605 2.605 0 1 0 .007-5.21 2.605 2.605 0 0 0-.007 5.21m-14.328-28.656a2.605 2.605 0 1 0 .006-5.211 2.605 2.605 0 0 0-.006 5.21m9.77 0a2.605 2.605 0 1 0 .007-5.21 2.605 2.605 0 0 0-.008 5.21m-4.559 9.77a2.605 2.605 0 1 0 .007-5.21 2.605 2.605 0 0 0-.007 5.21m9.118 0a2.605 2.605 0 1 0 .007-5.211 2.605 2.605 0 0 0-.007 5.21m-14.328-28.656a2.606 2.606 0 1 0 .006-5.21 2.606 2.606 0 0 0-.006 5.21m9.77 0a2.605 2.605 0 1 0 .006-5.21 2.605 2.605 0 0 0-.007 5.21m-4.559 9.118a2.605 2.605 0 1 0 .007-5.21 2.605 2.605 0 0 0-.007 5.21m9.118 0a2.606 2.606 0 1 0 .006-5.211 2.606 2.606 0 0 0-.006 5.211m-14.32-33.866a2.605 2.605 0 1 0-.008 5.21 2.605 2.605 0 0 0 .007-5.21m9.77 0a2.605 2.605 0 1 0-.007 5.21 2.605 2.605 0 0 0 .006-5.21m-4.559 9.769a2.605 2.605 0 1 0-.007 5.21 2.605 2.605 0 0 0 .007-5.21m9.118 0a2.605 2.605 0 1 0-.007 5.21 2.605 2.605 0 0 0 .007-5.21M40.824 98.738a2.606 2.606 0 1 0-.006 5.212 2.606 2.606 0 0 0 .006-5.212m9.77 0a2.605 2.605 0 1 0-.008 5.21 2.605 2.605 0 0 0 .007-5.21m-4.558 9.118a2.606 2.606 0 1 0-.007 5.212 2.606 2.606 0 0 0 .007-5.212m9.768 0a2.605 2.605 0 1 0-.006 5.211 2.605 2.605 0 0 0 .006-5.21M41.475 79.2a2.605 2.605 0 1 0-.006 5.21 2.605 2.605 0 0 0 .006-5.21m9.118 0a2.605 2.605 0 1 0-.006 5.21 2.605 2.605 0 0 0 .006-5.21m-4.559 9.77a2.605 2.605 0 1 0-.006 5.21 2.605 2.605 0 0 0 .006-5.21m9.769 0a2.605 2.605 0 1 0-.006 5.21 2.605 2.605 0 0 0 .006-5.21M41.468 65.522a2.605 2.605 0 1 0 .006-5.21 2.605 2.605 0 0 0-.006 5.21m9.125-5.21a2.606 2.606 0 1 0-.006 5.211 2.606 2.606 0 0 0 .006-5.211m-4.56 9.77a2.605 2.605 0 1 0-.006 5.209 2.605 2.605 0 0 0 .007-5.21m9.77 0a2.605 2.605 0 1 0-.007 5.21 2.605 2.605 0 0 0 .006-5.21M41.47 46.636a2.605 2.605 0 1 0 .006-5.21 2.605 2.605 0 0 0-.006 5.21m9.117 0a2.605 2.605 0 1 0 .007-5.21 2.605 2.605 0 0 0-.007 5.21m-4.558 9.118a2.605 2.605 0 1 0 .006-5.21 2.605 2.605 0 0 0-.006 5.21m9.776-5.21a2.605 2.605 0 1 0-.008 5.21 2.605 2.605 0 0 0 .008-5.21m-.007-13.677a2.605 2.605 0 1 0 .006-5.211 2.605 2.605 0 0 0-.006 5.21M69.48 232.904a2.605 2.605 0 1 0-.007 5.21 2.605 2.605 0 0 0 .007-5.21m-9.118-19.539a2.605 2.605 0 1 0-.007 5.211 2.605 2.605 0 0 0 .007-5.21m9.11 5.21a2.605 2.605 0 1 0 .007-5.211 2.605 2.605 0 0 0-.006 5.21m-4.552 4.56a2.605 2.605 0 1 0-.008 5.21 2.605 2.605 0 0 0 .008-5.21m9.77 0a2.606 2.606 0 1 0-.008 5.21 2.606 2.606 0 0 0 .007-5.21m-14.336-23.447a2.605 2.605 0 1 0 .007-5.21 2.605 2.605 0 0 0-.007 5.21m9.118 0a2.606 2.606 0 1 0 .006-5.211 2.606 2.606 0 0 0-.006 5.211m-4.558 9.118a2.606 2.606 0 1 0 .005-5.211 2.606 2.606 0 0 0-.005 5.211m9.769 0a2.605 2.605 0 1 0 .006-5.21 2.605 2.605 0 0 0-.006 5.21M60.356 180.15a2.606 2.606 0 1 0 .005-5.212 2.606 2.606 0 0 0-.005 5.212m9.117 0a2.606 2.606 0 1 0 .006-5.212 2.606 2.606 0 0 0-.006 5.212m-4.559 9.769a2.605 2.605 0 1 0 .007-5.21 2.605 2.605 0 0 0-.007 5.21m9.77 0a2.605 2.605 0 1 0 .006-5.21 2.605 2.605 0 0 0-.006 5.21m-14.328-28.656a2.605 2.605 0 1 0 .006-5.21 2.605 2.605 0 0 0-.006 5.21m9.117 0a2.605 2.605 0 1 0 .007-5.21 2.605 2.605 0 0 0-.007 5.21m-4.558 9.769a2.605 2.605 0 1 0 .006-5.211 2.605 2.605 0 0 0-.006 5.21m9.769 0a2.605 2.605 0 1 0 .007-5.209 2.605 2.605 0 0 0-.007 5.21m-14.328-28.657a2.605 2.605 0 1 0 .006-5.21 2.605 2.605 0 0 0-.006 5.21m9.118 0a2.605 2.605 0 1 0 .006-5.21 2.605 2.605 0 0 0-.006 5.21m-4.56 9.118a2.605 2.605 0 1 0 .008-5.21 2.605 2.605 0 0 0-.007 5.21m9.769 0a2.605 2.605 0 1 0 .006-5.21 2.605 2.605 0 0 0-.006 5.21m-14.321-33.866a2.605 2.605 0 1 0-.007 5.21 2.605 2.605 0 0 0 .007-5.21m9.762 5.21a2.605 2.605 0 1 0 .007-5.21 2.605 2.605 0 0 0-.007 5.21m-5.203 4.559a2.606 2.606 0 1 0-.006 5.211 2.606 2.606 0 0 0 .006-5.211m9.761 5.21a2.606 2.606 0 1 0 .007-5.211 2.606 2.606 0 0 0-.007 5.211m-14.32-33.867a2.605 2.605 0 1 0-.007 5.211 2.605 2.605 0 0 0 .006-5.21m9.77 0a2.605 2.605 0 1 0-.006 5.21 2.605 2.605 0 0 0 .006-5.21m-5.21 9.769a2.606 2.606 0 1 0-.006 5.211 2.606 2.606 0 0 0 .005-5.211m9.77 0a2.605 2.605 0 1 0-.007 5.21 2.605 2.605 0 0 0 .007-5.21M60.362 79.2a2.605 2.605 0 1 0-.007 5.21 2.605 2.605 0 0 0 .007-5.21m9.77 0a2.605 2.605 0 1 0-.007 5.21 2.605 2.605 0 0 0 .006-5.21m-5.21 9.77a2.606 2.606 0 1 0-.006 5.21 2.606 2.606 0 0 0 .007-5.21m9.768 0a2.605 2.605 0 1 0-.006 5.21 2.605 2.605 0 0 0 .006-5.21M60.363 60.312a2.605 2.605 0 1 0-.007 5.21 2.605 2.605 0 0 0 .007-5.21m9.769 0a2.606 2.606 0 1 0-.006 5.211 2.606 2.606 0 0 0 .006-5.211m-5.21 9.77a2.606 2.606 0 1 0-.007 5.21 2.606 2.606 0 0 0 .007-5.21m9.769 0a2.605 2.605 0 1 0-.007 5.21 2.605 2.605 0 0 0 .007-5.21M60.356 46.635a2.605 2.605 0 1 0 .006-5.21 2.605 2.605 0 0 0-.006 5.21m9.776-5.21a2.605 2.605 0 1 0-.006 5.21 2.605 2.605 0 0 0 .006-5.21m-5.21 9.118a2.605 2.605 0 1 0-.007 5.21 2.605 2.605 0 0 0 .007-5.21m9.769 0a2.605 2.605 0 1 0-.007 5.21 2.605 2.605 0 0 0 .007-5.21m-4.567-23.447a2.606 2.606 0 1 0 .007-5.211 2.606 2.606 0 0 0-.007 5.211m-5.21 9.77a2.605 2.605 0 1 0 .007-5.21 2.605 2.605 0 0 0-.006 5.21m9.769 0a2.605 2.605 0 1 0 .006-5.211 2.605 2.605 0 0 0-.006 5.21m4.566 196.037a2.605 2.605 0 1 0-.007 5.21 2.605 2.605 0 0 0 .007-5.21m9.769 0a2.605 2.605 0 1 0-.008 5.21 2.605 2.605 0 0 0 .008-5.21m-5.21 9.118a2.605 2.605 0 1 0-.007 5.21 2.605 2.605 0 0 0 .007-5.21m9.769 0a2.605 2.605 0 1 0-.007 5.21 2.605 2.605 0 0 0 .007-5.21m-14.335-23.447a2.606 2.606 0 1 0 .005-5.211 2.606 2.606 0 0 0-.005 5.211m9.769 0a2.606 2.606 0 1 0 .006-5.211 2.606 2.606 0 0 0-.006 5.211m-5.21 9.77a2.605 2.605 0 1 0 .007-5.21 2.605 2.605 0 0 0-.007 5.21m9.769 0a2.605 2.605 0 1 0 .007-5.21 2.605 2.605 0 0 0-.007 5.21m-14.329-28.657a2.605 2.605 0 1 0 .007-5.21 2.605 2.605 0 0 0-.007 5.21m9.77 0a2.605 2.605 0 1 0 .007-5.21 2.605 2.605 0 0 0-.007 5.21m-5.21 9.118a2.606 2.606 0 1 0 .005-5.212 2.606 2.606 0 0 0-.006 5.212m9.77.651a2.605 2.605 0 1 0 .008-5.21 2.605 2.605 0 0 0-.008 5.21M79.243 180.15a2.605 2.605 0 1 0 .006-5.211 2.605 2.605 0 0 0-.006 5.21m9.77 0a2.605 2.605 0 1 0 .006-5.209 2.605 2.605 0 0 0-.007 5.21m-5.21 9.769a2.606 2.606 0 1 0 .005-5.212 2.606 2.606 0 0 0-.006 5.212m9.77 0a2.605 2.605 0 1 0 .006-5.211 2.605 2.605 0 0 0-.006 5.21m-14.328-28.655a2.605 2.605 0 1 0 .006-5.21 2.605 2.605 0 0 0-.006 5.21m9.769 0a2.605 2.605 0 1 0 .006-5.211 2.605 2.605 0 0 0-.006 5.21m-5.21 9.77a2.605 2.605 0 1 0 .006-5.21 2.605 2.605 0 0 0-.006 5.21m9.77 0a2.605 2.605 0 1 0 .006-5.21 2.605 2.605 0 0 0-.007 5.21m-14.328-28.657a2.605 2.605 0 1 0 .006-5.21 2.605 2.605 0 0 0-.006 5.21m9.769 0a2.606 2.606 0 0 0 .007-5.21 2.605 2.605 0 1 0-.007 5.21m-4.559 9.118a2.605 2.605 0 1 0 .007-5.21 2.605 2.605 0 0 0-.007 5.21m9.118 0a2.606 2.606 0 1 0 .005-5.212 2.606 2.606 0 0 0-.005 5.212M79.25 117.626a2.606 2.606 0 1 0-.006 5.211 2.606 2.606 0 0 0 .006-5.211m9.769 0a2.605 2.605 0 1 0-.008 5.21 2.605 2.605 0 0 0 .008-5.21m-4.559 9.769a2.605 2.605 0 1 0-.007 5.21 2.605 2.605 0 0 0 .007-5.21m9.118 0a2.605 2.605 0 1 0-.007 5.21 2.605 2.605 0 0 0 .007-5.21M79.25 98.738a2.606 2.606 0 1 0-.007 5.212 2.606 2.606 0 0 0 .007-5.212m9.769 0a2.605 2.605 0 1 0-.007 5.211 2.605 2.605 0 0 0 .007-5.21m-4.56 9.769a2.605 2.605 0 1 0-.006 5.21 2.605 2.605 0 0 0 .007-5.21m9.118 0a2.605 2.605 0 1 0-.007 5.21 2.605 2.605 0 0 0 .007-5.21M79.25 79.2a2.605 2.605 0 1 0-.007 5.211 2.605 2.605 0 0 0 .007-5.211m9.769 0a2.605 2.605 0 1 0-.006 5.211 2.605 2.605 0 0 0 .006-5.211m-4.559 9.77a2.605 2.605 0 1 0-.008 5.21 2.605 2.605 0 0 0 .008-5.21m9.118 0a2.605 2.605 0 1 0-.007 5.209 2.605 2.605 0 0 0 .007-5.21M79.25 60.313a2.605 2.605 0 1 0-.007 5.21 2.605 2.605 0 0 0 .007-5.21m9.769 0a2.605 2.605 0 1 0-.007 5.21 2.605 2.605 0 0 0 .007-5.21m-4.559 9.77a2.605 2.605 0 1 0-.007 5.21 2.605 2.605 0 0 0 .007-5.21m9.118 0a2.605 2.605 0 1 0-.007 5.21 2.605 2.605 0 0 0 .007-5.21M79.25 41.425a2.605 2.605 0 1 0-.007 5.21 2.605 2.605 0 0 0 .007-5.21m9.769 0a2.605 2.605 0 1 0-.006 5.21 2.605 2.605 0 0 0 .006-5.21m-4.56 9.118a2.606 2.606 0 1 0-.005 5.211 2.606 2.606 0 0 0 .006-5.211m9.118 0a2.605 2.605 0 1 0-.007 5.21 2.605 2.605 0 0 0 .007-5.21M79.242 27.097a2.605 2.605 0 1 0 .008-5.21 2.605 2.605 0 0 0-.008 5.21m9.77 0a2.605 2.605 0 1 0 .007-5.21 2.605 2.605 0 0 0-.007 5.21m-4.552 4.56a2.606 2.606 0 1 0-.006 5.21 2.606 2.606 0 0 0 .006-5.21m9.118 0a2.605 2.605 0 1 0-.007 5.21 2.605 2.605 0 0 0 .007-5.21m-9.125-13.678a2.606 2.606 0 1 0 .006-5.21 2.606 2.606 0 0 0-.006 5.21m9.118 0a2.606 2.606 0 1 0 .006-5.21 2.606 2.606 0 0 0-.006 5.21m4.566 214.924a2.606 2.606 0 1 0-.006 5.211 2.606 2.606 0 0 0 .006-5.211m9.762 5.21a2.605 2.605 0 1 0 .007-5.21 2.605 2.605 0 0 0-.007 5.21m-4.552 3.908a2.605 2.605 0 1 0-.006 5.21 2.605 2.605 0 0 0 .006-5.21m9.118 0a2.606 2.606 0 1 0-.006 5.21 2.606 2.606 0 0 0 .006-5.21M98.13 218.574a2.605 2.605 0 1 0 .006-5.21 2.605 2.605 0 0 0-.006 5.21m9.769 0a2.606 2.606 0 1 0 .007-5.21 2.606 2.606 0 0 0-.007 5.21m-4.559 9.77a2.605 2.605 0 1 0 .007-5.21 2.605 2.605 0 0 0-.007 5.21m9.118 0a2.605 2.605 0 1 0 .006-5.211 2.605 2.605 0 0 0-.006 5.21M98.13 199.688a2.605 2.605 0 1 0 .007-5.21 2.605 2.605 0 0 0-.007 5.21m9.769 0a2.606 2.606 0 1 0 .006-5.21 2.606 2.606 0 0 0-.006 5.21m-4.56 9.77a2.605 2.605 0 1 0 .008-5.211 2.605 2.605 0 0 0-.007 5.21m9.118 0a2.605 2.605 0 1 0 .007-5.21 2.605 2.605 0 0 0-.007 5.21M98.13 180.15a2.605 2.605 0 1 0 .007-5.21 2.605 2.605 0 0 0-.007 5.21m9.77 0a2.606 2.606 0 1 0 .005-5.212 2.606 2.606 0 0 0-.006 5.212m-4.559 9.769a2.605 2.605 0 1 0 .007-5.21 2.605 2.605 0 0 0-.007 5.21m9.77 0a2.605 2.605 0 1 0 .006-5.21 2.605 2.605 0 0 0-.007 5.21m-14.328-28.656a2.605 2.605 0 1 0 .007-5.21 2.605 2.605 0 0 0-.007 5.21m9.118 0a2.606 2.606 0 1 0 .006-5.212 2.606 2.606 0 0 0-.006 5.212m-4.558 9.769a2.605 2.605 0 1 0 .006-5.21 2.605 2.605 0 0 0-.006 5.21m9.768 0a2.605 2.605 0 1 0 .007-5.211 2.605 2.605 0 0 0-.007 5.21m-14.328-28.656a2.606 2.606 0 1 0 .006-5.211 2.606 2.606 0 0 0-.006 5.211m9.118 0a2.605 2.605 0 1 0 .007-5.21 2.605 2.605 0 0 0-.007 5.21m-4.559 9.118a2.606 2.606 0 1 0 .006-5.211 2.606 2.606 0 0 0-.006 5.211m9.769 0a2.606 2.606 0 1 0 .007-5.21 2.606 2.606 0 0 0-.007 5.21m-14.321-33.866a2.606 2.606 0 1 0-.006 5.211 2.606 2.606 0 0 0 .006-5.211m9.11 5.21a2.606 2.606 0 1 0 .007-5.211 2.606 2.606 0 0 0-.006 5.21m-4.552 4.56a2.605 2.605 0 1 0-.006 5.21 2.605 2.605 0 0 0 .006-5.21m9.762 5.21a2.605 2.605 0 1 0 .007-5.21 2.605 2.605 0 0 0-.007 5.21M98.79 98.738a2.605 2.605 0 1 0-.008 5.21 2.605 2.605 0 0 0 .007-5.21m9.118 0a2.605 2.605 0 1 0-.007 5.211 2.605 2.605 0 0 0 .007-5.21m-4.559 9.769a2.606 2.606 0 1 0-.005 5.212 2.606 2.606 0 0 0 .005-5.212m9.77 0a2.605 2.605 0 1 0-.008 5.21 2.605 2.605 0 0 0 .007-5.21M98.788 79.2a2.605 2.605 0 1 0-.006 5.211 2.605 2.605 0 0 0 .006-5.211m9.118.651a2.605 2.605 0 1 0-.007 5.21 2.605 2.605 0 0 0 .007-5.21m-4.559 9.118a2.606 2.606 0 1 0-.006 5.211 2.606 2.606 0 0 0 .006-5.21m9.77 0a2.605 2.605 0 1 0-.007 5.21 2.605 2.605 0 0 0 .006-5.21M98.788 60.312a2.606 2.606 0 1 0-.006 5.211 2.606 2.606 0 0 0 .006-5.211m9.118 0a2.605 2.605 0 1 0-.006 5.21 2.605 2.605 0 0 0 .006-5.21m-4.559 9.77a2.605 2.605 0 1 0-.006 5.21 2.605 2.605 0 0 0 .006-5.21m9.77 0a2.605 2.605 0 1 0-.007 5.21 2.605 2.605 0 0 0 .006-5.21M98.788 41.425a2.605 2.605 0 1 0-.006 5.21 2.605 2.605 0 0 0 .006-5.21m9.118 0a2.605 2.605 0 1 0-.006 5.21 2.605 2.605 0 0 0 .006-5.21m-4.559 9.118a2.605 2.605 0 1 0-.006 5.21 2.605 2.605 0 0 0 .006-5.21m9.769 0a2.605 2.605 0 1 0-.007 5.21 2.605 2.605 0 0 0 .007-5.21M98.781 27.097a2.605 2.605 0 1 0 .007-5.21 2.605 2.605 0 0 0-.007 5.21m9.125-5.21a2.605 2.605 0 1 0-.007 5.21 2.605 2.605 0 0 0 .007-5.21m-4.559 9.77a2.606 2.606 0 1 0-.006 5.21 2.606 2.606 0 0 0 .006-5.21m9.769 0a2.605 2.605 0 1 0-.007 5.21 2.605 2.605 0 0 0 .007-5.21m-9.776-13.678a2.605 2.605 0 1 0 .007-5.21 2.605 2.605 0 0 0-.007 5.21m9.77 0a2.605 2.605 0 1 0 .006-5.21 2.605 2.605 0 0 0-.007 5.21m13.684 233.81a2.605 2.605 0 1 0-.007 5.211 2.605 2.605 0 0 0 .007-5.21m-9.125-13.677a2.605 2.605 0 1 0 .007-5.21 2.605 2.605 0 0 0-.007 5.21m9.118 0a2.605 2.605 0 1 0 .007-5.21 2.605 2.605 0 0 0-.007 5.21m-4.552 3.908a2.605 2.605 0 1 0-.006 5.21 2.605 2.605 0 0 0 .006-5.21m9.77 0a2.606 2.606 0 1 0-.006 5.211 2.606 2.606 0 0 0 .005-5.211m-14.334-23.447a2.605 2.605 0 1 0 .005-5.21 2.605 2.605 0 0 0-.005 5.21m9.768 0a2.605 2.605 0 1 0 .007-5.21 2.605 2.605 0 0 0-.007 5.21m-5.21 9.77a2.605 2.605 0 1 0 .007-5.211 2.605 2.605 0 0 0-.007 5.21m9.77 0a2.604 2.604 0 1 0 .007-5.208 2.604 2.604 0 0 0-.007 5.209m-14.329-28.657a2.606 2.606 0 1 0 .005-5.212 2.606 2.606 0 0 0-.005 5.212m9.77 0a2.605 2.605 0 1 0 .006-5.21 2.605 2.605 0 0 0-.006 5.21m-5.21 9.77a2.605 2.605 0 1 0 .006-5.212 2.605 2.605 0 0 0-.007 5.211m9.77 0a2.605 2.605 0 1 0 .006-5.21 2.605 2.605 0 0 0-.007 5.21M117.67 180.15a2.605 2.605 0 1 0 .006-5.21 2.605 2.605 0 0 0-.006 5.21m9.768 0a2.605 2.605 0 1 0 .008-5.21 2.605 2.605 0 0 0-.008 5.21m-5.21 9.769a2.605 2.605 0 1 0 .007-5.21 2.605 2.605 0 0 0-.006 5.21m9.769 0a2.606 2.606 0 1 0 .005-5.212 2.606 2.606 0 0 0-.005 5.212m-14.329-28.656a2.605 2.605 0 1 0 .007-5.21 2.605 2.605 0 0 0-.007 5.21m9.77 0a2.605 2.605 0 1 0 .006-5.211 2.605 2.605 0 0 0-.006 5.21m-5.21 9.77a2.605 2.605 0 1 0 .006-5.21 2.605 2.605 0 0 0-.007 5.21m9.77 0a2.605 2.605 0 1 0 .007-5.21 2.605 2.605 0 0 0-.007 5.21m-14.329-28.657a2.605 2.605 0 1 0 .008-5.21 2.605 2.605 0 0 0-.008 5.21m9.77 0a2.605 2.605 0 1 0 .007-5.21 2.605 2.605 0 0 0-.008 5.21m-5.21 9.118a2.605 2.605 0 1 0 .006-5.21 2.605 2.605 0 0 0-.006 5.21m9.77 0a2.605 2.605 0 1 0 .007-5.21 2.605 2.605 0 0 0-.008 5.21m-14.327-28.656a2.605 2.605 0 1 0 .006-5.21 2.605 2.605 0 0 0-.006 5.21m9.769 0a2.605 2.605 0 1 0 .007-5.21 2.605 2.605 0 0 0-.007 5.21m-5.21 9.77a2.606 2.606 0 1 0 .006-5.212 2.606 2.606 0 0 0-.007 5.211m9.77 0a2.605 2.605 0 1 0 .006-5.21 2.605 2.605 0 0 0-.006 5.21m-14.321-33.867a2.605 2.605 0 1 0-.007 5.211 2.605 2.605 0 0 0 .007-5.21m9.769 0a2.606 2.606 0 1 0-.006 5.212 2.606 2.606 0 0 0 .006-5.213m-5.21 9.77a2.605 2.605 0 1 0-.008 5.21 2.605 2.605 0 0 0 .007-5.21m9.77 0a2.605 2.605 0 1 0-.008 5.21 2.605 2.605 0 0 0 .008-5.21m-14.33-28.659a2.605 2.605 0 1 0-.006 5.211 2.605 2.605 0 0 0 .006-5.21m9.77 0a2.605 2.605 0 1 0-.007 5.21 2.605 2.605 0 0 0 .006-5.21m-5.21 9.117a2.606 2.606 0 1 0-.005 5.212 2.606 2.606 0 0 0 .005-5.212m9.77 0a2.606 2.606 0 1 0-.006 5.212 2.606 2.606 0 0 0 .005-5.212m-14.328-28.656a2.606 2.606 0 1 0-.005 5.211 2.606 2.606 0 0 0 .005-5.211m9.77 0a2.605 2.605 0 1 0-.008 5.21 2.605 2.605 0 0 0 .007-5.21m-5.21 9.77a2.605 2.605 0 1 0-.006 5.21 2.605 2.605 0 0 0 .006-5.21m9.77 0a2.605 2.605 0 1 0-.007 5.21 2.605 2.605 0 0 0 .006-5.21m-14.328-28.657a2.606 2.606 0 1 0-.006 5.21 2.606 2.606 0 0 0 .006-5.21m9.77 0a2.606 2.606 0 1 0-.007 5.21 2.606 2.606 0 0 0 .007-5.21m-5.21 9.118a2.605 2.605 0 1 0-.007 5.21 2.605 2.605 0 0 0 .006-5.21m9.77 0a2.606 2.606 0 1 0-.006 5.211 2.606 2.606 0 0 0 .006-5.211m-14.329-28.657a2.605 2.605 0 1 0-.006 5.211 2.605 2.605 0 0 0 .006-5.21m9.77 0a2.605 2.605 0 1 0-.007 5.21 2.605 2.605 0 0 0 .006-5.21m-4.558 9.768a2.605 2.605 0 1 0-.008 5.21 2.605 2.605 0 0 0 .008-5.21m9.117 0a2.606 2.606 0 1 0-.005 5.212 2.606 2.606 0 0 0 .005-5.212M127.437 8.21a2.605 2.605 0 1 0 .007-5.21 2.605 2.605 0 0 0-.007 5.21m-9.769 0a2.606 2.606 0 1 0 .006-5.21 2.606 2.606 0 0 0-.006 5.211m-9.117 0a2.605 2.605 0 1 0 .006-5.21 2.605 2.605 0 0 0-.006 5.21m14.328 9.77a2.605 2.605 0 1 0 .006-5.211 2.605 2.605 0 0 0-.006 5.21m9.118 0a2.606 2.606 0 1 0 .005-5.211 2.606 2.606 0 0 0-.005 5.211m4.566 233.81a2.605 2.605 0 1 0-.007 5.211 2.605 2.605 0 0 0 .007-5.21m-.007-13.677a2.606 2.606 0 1 0 .005-5.212 2.606 2.606 0 0 0-.005 5.212m9.769 0a2.605 2.605 0 1 0 .006-5.21 2.605 2.605 0 0 0-.006 5.21m-5.204 3.908a2.605 2.605 0 1 0-.007 5.209 2.605 2.605 0 0 0 .007-5.21m9.77 0a2.606 2.606 0 1 0-.006 5.213 2.606 2.606 0 0 0 .006-5.212m-14.335-23.447a2.605 2.605 0 1 0 .006-5.21 2.605 2.605 0 0 0-.006 5.21m9.769 0a2.606 2.606 0 1 0 .006-5.21 2.606 2.606 0 0 0-.006 5.21m-4.559 9.77a2.605 2.605 0 1 0 .007-5.21 2.605 2.605 0 0 0-.007 5.21m9.118 0a2.605 2.605 0 1 0 .006-5.21 2.605 2.605 0 0 0-.006 5.21m-14.328-28.657a2.605 2.605 0 1 0 .007-5.21 2.605 2.605 0 0 0-.007 5.21m9.769 0a2.606 2.606 0 1 0 .005-5.211 2.606 2.606 0 0 0-.005 5.211m-4.56 9.77a2.605 2.605 0 1 0 .008-5.21 2.605 2.605 0 0 0-.007 5.21m9.118 0a2.605 2.605 0 1 0 .006-5.211 2.605 2.605 0 0 0-.006 5.21M136.556 180.8a2.605 2.605 0 1 0 .006-5.21 2.605 2.605 0 0 0-.006 5.21m9.769 0a2.606 2.606 0 1 0 .006-5.212 2.606 2.606 0 0 0-.006 5.212m-4.559 9.118a2.605 2.605 0 1 0 .006-5.21 2.605 2.605 0 0 0-.006 5.21m9.117 0a2.606 2.606 0 1 0 .007-5.212 2.606 2.606 0 0 0-.007 5.212m-14.327-28.656a2.605 2.605 0 1 0 .006-5.211 2.605 2.605 0 0 0-.006 5.21m9.769 0a2.605 2.605 0 1 0 .007-5.21 2.605 2.605 0 0 0-.007 5.21m-4.56 9.77a2.605 2.605 0 1 0 .008-5.21 2.605 2.605 0 0 0-.007 5.21m9.118 0a2.606 2.606 0 1 0 .005-5.212 2.606 2.606 0 0 0-.005 5.212m-14.329-28.657a2.606 2.606 0 1 0 .006-5.212 2.606 2.606 0 0 0-.006 5.212m9.77 0a2.605 2.605 0 1 0 .006-5.21 2.605 2.605 0 0 0-.006 5.21m-4.559 9.118a2.605 2.605 0 1 0 .007-5.21 2.605 2.605 0 0 0-.007 5.21m9.118 0a2.605 2.605 0 1 0 .007-5.21 2.605 2.605 0 0 0-.007 5.21m-14.328-28.656a2.605 2.605 0 1 0 .006-5.21 2.605 2.605 0 0 0-.006 5.21m9.769 0a2.605 2.605 0 1 0 .006-5.21 2.605 2.605 0 0 0-.006 5.21m-4.559 9.77a2.605 2.605 0 1 0 .007-5.211 2.605 2.605 0 0 0-.007 5.21m9.118 0a2.605 2.605 0 1 0 .006-5.21 2.605 2.605 0 0 0-.006 5.21m-14.322-33.867a2.605 2.605 0 1 0-.006 5.211 2.605 2.605 0 0 0 .006-5.21m9.77 0a2.606 2.606 0 1 0-.006 5.211 2.606 2.606 0 0 0 .006-5.212m-4.559 9.77a2.606 2.606 0 1 0-.006 5.211 2.606 2.606 0 0 0 .006-5.211m9.117 0a2.605 2.605 0 1 0-.007 5.21 2.605 2.605 0 0 0 .007-5.21M136.562 79.85a2.605 2.605 0 1 0-.006 5.21 2.605 2.605 0 0 0 .006-5.21m9.77 0a2.605 2.605 0 1 0-.007 5.21 2.605 2.605 0 0 0 .007-5.21m-4.56 9.118a2.605 2.605 0 1 0-.006 5.211 2.605 2.605 0 0 0 .007-5.21m9.118 0a2.605 2.605 0 1 0-.007 5.21 2.605 2.605 0 0 0 .007-5.21m-14.329-28.657a2.605 2.605 0 1 0-.006 5.21 2.605 2.605 0 0 0 .006-5.21m9.77 0a2.606 2.606 0 1 0-.006 5.211 2.606 2.606 0 0 0 .006-5.211m-4.56 9.77a2.605 2.605 0 1 0-.006 5.209 2.605 2.605 0 0 0 .006-5.21m9.77 0a2.605 2.605 0 1 0-.007 5.21 2.605 2.605 0 0 0 .007-5.21m-14.328-28.656a2.605 2.605 0 1 0-.008 5.21 2.605 2.605 0 0 0 .008-5.21m9.118 0a2.605 2.605 0 1 0-.007 5.21 2.605 2.605 0 0 0 .007-5.21m-4.56 9.118a2.605 2.605 0 1 0-.006 5.21 2.605 2.605 0 0 0 .007-5.21m9.77.65a2.605 2.605 0 1 0-.007 5.212 2.605 2.605 0 0 0 .006-5.211m-14.328-29.308a2.605 2.605 0 1 0-.007 5.21 2.605 2.605 0 0 0 .007-5.21m9.118 0a2.605 2.605 0 1 0-.007 5.21 2.605 2.605 0 0 0 .007-5.21m-4.559 9.77a2.606 2.606 0 1 0-.007 5.21 2.606 2.606 0 0 0 .007-5.21m9.769 0a2.605 2.605 0 1 0-.007 5.21 2.605 2.605 0 0 0 .007-5.21M137.207 8.21a2.605 2.605 0 1 0 .007-5.21 2.605 2.605 0 0 0-.007 5.21m9.118 0A2.605 2.605 0 1 0 146.33 3a2.605 2.605 0 0 0-.006 5.21m9.769 0A2.605 2.605 0 1 0 156.1 3a2.605 2.605 0 0 0-.007 5.21m-38.419 243.58a2.605 2.605 0 1 0-.006 5.21 2.605 2.605 0 0 0 .006-5.21m-9.117 0a2.606 2.606 0 1 0-.006 5.211 2.606 2.606 0 0 0 .006-5.211"/><g transform="translate(143.072 251.79)"><mask id="halftone-circle-b" fill="#fff"><use xlink:href="#halftone-circle-a"/></mask><path fill="#B8E3F2" d="M3.046.158C1.607.156.44 1.286.438 2.68.436 4.076 1.6 5.208 3.04 5.21c1.439.002 2.606-1.128 2.608-2.522C5.65 1.292 4.485.16 3.046.158" mask="url(#halftone-circle-b)"/></g><g transform="translate(152.841 251.79)"><mask id="halftone-circle-d" fill="#fff"><use xlink:href="#halftone-circle-c"/></mask><path fill="#B8E3F2" d="M2.817.158C1.378.156.21 1.286.209 2.68.207 4.076 1.372 5.208 2.81 5.21c1.44.002 2.607-1.128 2.609-2.522C5.42 1.292 4.256.16 2.817.158" mask="url(#halftone-circle-d)"/></g><path fill="#B8E3F2" d="M141.765 17.98a2.606 2.606 0 1 0 .007-5.212 2.606 2.606 0 0 0-.007 5.211m9.77 0a2.606 2.606 0 1 0 .006-5.211 2.606 2.606 0 0 0-.006 5.211m4.56 220.134a2.605 2.605 0 1 0 .007-5.21 2.605 2.605 0 0 0-.008 5.21m9.125-5.21a2.605 2.605 0 1 0-.007 5.21 2.605 2.605 0 0 0 .007-5.21m-4.56 9.118a2.605 2.605 0 1 0-.006 5.21 2.605 2.605 0 0 0 .007-5.21m9.77 0a2.605 2.605 0 1 0-.008 5.21 2.605 2.605 0 0 0 .007-5.21m-14.335-23.447a2.605 2.605 0 1 0 .007-5.21 2.605 2.605 0 0 0-.007 5.21m9.118 0a2.606 2.606 0 1 0 .006-5.211 2.606 2.606 0 0 0-.006 5.211m-4.559 9.77a2.605 2.605 0 1 0 .007-5.21 2.605 2.605 0 0 0-.007 5.21m9.77 0a2.605 2.605 0 1 0 .005-5.211 2.605 2.605 0 0 0-.006 5.21m-14.328-28.656a2.605 2.605 0 1 0 .006-5.21 2.605 2.605 0 0 0-.006 5.21m9.117 0a2.606 2.606 0 1 0 .006-5.212 2.606 2.606 0 0 0-.006 5.212m-4.558 9.77a2.605 2.605 0 1 0 .006-5.211 2.605 2.605 0 0 0-.006 5.21m9.77 0a2.606 2.606 0 1 0 .005-5.211 2.606 2.606 0 0 0-.006 5.211M156.094 180.8a2.605 2.605 0 1 0 .006-5.21 2.605 2.605 0 0 0-.006 5.21m9.118 0a2.606 2.606 0 1 0 .006-5.211 2.606 2.606 0 0 0-.006 5.211m-4.56 9.118a2.605 2.605 0 1 0 .007-5.211 2.605 2.605 0 0 0-.006 5.21m9.769 0a2.605 2.605 0 1 0 .007-5.21 2.605 2.605 0 0 0-.007 5.21m-14.328-28.655a2.605 2.605 0 1 0 .007-5.21 2.605 2.605 0 0 0-.007 5.21m9.118 0a2.605 2.605 0 1 0 .007-5.211 2.605 2.605 0 0 0-.007 5.21m-4.559 9.77a2.605 2.605 0 1 0 .006-5.211 2.605 2.605 0 0 0-.006 5.21m9.77 0a2.605 2.605 0 1 0 .006-5.209 2.605 2.605 0 0 0-.007 5.21m-14.328-28.657a2.605 2.605 0 1 0 .006-5.21 2.605 2.605 0 0 0-.006 5.21m9.118 0a2.605 2.605 0 1 0 .006-5.21 2.605 2.605 0 0 0-.006 5.21m-4.559 9.118a2.605 2.605 0 1 0 .006-5.21 2.605 2.605 0 0 0-.006 5.21m9.77 0a2.605 2.605 0 1 0 .005-5.21 2.605 2.605 0 0 0-.006 5.21m-14.328-28.656a2.606 2.606 0 1 0 .006-5.211 2.606 2.606 0 0 0-.006 5.21m9.125-5.21a2.605 2.605 0 1 0-.007 5.211 2.605 2.605 0 0 0 .007-5.21m-4.566 14.98a2.605 2.605 0 1 0 .007-5.211 2.605 2.605 0 0 0-.007 5.21m9.776-5.21a2.605 2.605 0 1 0-.007 5.21 2.605 2.605 0 0 0 .007-5.21m-14.328-28.657a2.606 2.606 0 1 0-.006 5.212 2.606 2.606 0 0 0 .006-5.212m9.77 0a2.605 2.605 0 1 0-.007 5.211 2.605 2.605 0 0 0 .006-5.21m-5.21 9.769a2.606 2.606 0 1 0-.006 5.211 2.606 2.606 0 0 0 .006-5.211m9.769 0a2.605 2.605 0 1 0-.007 5.21 2.605 2.605 0 0 0 .007-5.21M156.1 79.85a2.605 2.605 0 1 0-.007 5.21 2.605 2.605 0 0 0 .007-5.21m9.77 0a2.605 2.605 0 1 0-.009 5.21 2.605 2.605 0 0 0 .008-5.21m-5.21 9.118a2.606 2.606 0 1 0-.006 5.211 2.606 2.606 0 0 0 .006-5.21m9.769 0a2.605 2.605 0 1 0-.006 5.21 2.605 2.605 0 0 0 .006-5.21M156.1 60.312a2.606 2.606 0 1 0-.006 5.211 2.606 2.606 0 0 0 .006-5.211m9.77 0a2.605 2.605 0 1 0-.008 5.21 2.605 2.605 0 0 0 .007-5.21m-5.21 9.77a2.605 2.605 0 1 0-.007 5.209 2.605 2.605 0 0 0 .007-5.21m9.77 0a2.605 2.605 0 1 0-.007 5.211 2.605 2.605 0 0 0 .006-5.21M156.1 41.425a2.606 2.606 0 1 0-.007 5.21 2.606 2.606 0 0 0 .007-5.21m9.77 0a2.606 2.606 0 1 0-.006 5.211 2.606 2.606 0 0 0 .005-5.211m-5.21 9.769a2.606 2.606 0 1 0-.006 5.211 2.606 2.606 0 0 0 .006-5.211m9.77 0a2.605 2.605 0 1 0-.008 5.21 2.605 2.605 0 0 0 .007-5.21M156.1 21.886a2.605 2.605 0 1 0-.007 5.21 2.605 2.605 0 0 0 .007-5.21m9.762 5.21a2.605 2.605 0 1 0 .006-5.21 2.605 2.605 0 0 0-.006 5.21m-5.203 4.56a2.605 2.605 0 1 0-.006 5.21 2.605 2.605 0 0 0 .006-5.21m9.77 0a2.605 2.605 0 1 0-.008 5.21 2.605 2.605 0 0 0 .007-5.21m-9.776-13.678a2.605 2.605 0 1 0 .007-5.21 2.605 2.605 0 0 0-.007 5.21m9.769 0a2.605 2.605 0 1 0 .007-5.21 2.605 2.605 0 0 0-.007 5.21m4.566 214.924a2.605 2.605 0 1 0-.007 5.21 2.605 2.605 0 0 0 .007-5.21m9.77 0a2.605 2.605 0 1 0-.007 5.21 2.605 2.605 0 0 0 .007-5.21m-5.21 9.118a2.605 2.605 0 1 0-.007 5.21 2.605 2.605 0 0 0 .006-5.21m-4.566-23.447a2.605 2.605 0 1 0 .007-5.21 2.605 2.605 0 0 0-.007 5.21m9.77 0a2.605 2.605 0 1 0 .006-5.21 2.605 2.605 0 0 0-.007 5.21m-5.21 9.77a2.605 2.605 0 1 0 .007-5.21 2.605 2.605 0 0 0-.007 5.21m9.776-5.21a2.606 2.606 0 1 0-.005 5.21 2.606 2.606 0 0 0 .005-5.21m-14.335-23.447a2.605 2.605 0 1 0 .008-5.21 2.605 2.605 0 0 0-.008 5.21m9.77 0a2.605 2.605 0 1 0 .007-5.21 2.605 2.605 0 0 0-.008 5.21m-5.21 9.77a2.606 2.606 0 1 0 .006-5.212 2.606 2.606 0 0 0-.006 5.211m9.769 0a2.605 2.605 0 1 0 .007-5.21 2.605 2.605 0 0 0-.007 5.21M174.98 180.8a2.605 2.605 0 1 0 .006-5.211 2.605 2.605 0 0 0-.006 5.211m9.77 0a2.605 2.605 0 1 0 .007-5.21 2.605 2.605 0 0 0-.007 5.21m-5.211 9.118a2.605 2.605 0 1 0 .007-5.21 2.605 2.605 0 0 0-.007 5.21m9.77 0a2.606 2.606 0 1 0 .006-5.211 2.606 2.606 0 0 0-.007 5.21m-14.328-28.655a2.605 2.605 0 1 0 .007-5.21 2.605 2.605 0 0 0-.007 5.21m9.77 0a2.605 2.605 0 1 0 .006-5.21 2.605 2.605 0 0 0-.007 5.21m-5.21 9.769a2.605 2.605 0 1 0 .007-5.21 2.605 2.605 0 0 0-.007 5.21m9.77 0a2.605 2.605 0 1 0 .006-5.21 2.605 2.605 0 0 0-.006 5.21m-14.329-28.657a2.606 2.606 0 1 0 .005-5.212 2.606 2.606 0 0 0-.005 5.212m9.77 0a2.606 2.606 0 1 0 .005-5.212 2.606 2.606 0 0 0-.006 5.212m-5.21 9.77a2.606 2.606 0 1 0 .006-5.212 2.606 2.606 0 0 0-.006 5.212m9.77 0a2.606 2.606 0 1 0 .005-5.212 2.606 2.606 0 0 0-.006 5.212m-14.321-34.518a2.606 2.606 0 1 0-.006 5.211 2.606 2.606 0 0 0 .006-5.211m9.762 5.21a2.605 2.605 0 1 0 .007-5.21 2.605 2.605 0 0 0-.007 5.21m-5.203 4.559a2.605 2.605 0 1 0-.007 5.21 2.605 2.605 0 0 0 .007-5.21m9.762 5.21a2.605 2.605 0 1 0 .007-5.21 2.605 2.605 0 0 0-.007 5.21m-14.321-33.867a2.605 2.605 0 1 0-.006 5.211 2.605 2.605 0 0 0 .006-5.21m9.77 0a2.606 2.606 0 1 0-.007 5.21 2.606 2.606 0 0 0 .007-5.21m-4.56 9.769a2.606 2.606 0 1 0-.005 5.211 2.606 2.606 0 0 0 .005-5.211m9.118 0a2.605 2.605 0 1 0-.007 5.21 2.605 2.605 0 0 0 .007-5.21M174.988 79.85a2.605 2.605 0 1 0-.007 5.21 2.605 2.605 0 0 0 .007-5.21m9.77 0a2.606 2.606 0 1 0-.007 5.212 2.606 2.606 0 0 0 .007-5.212m-4.56 9.118a2.605 2.605 0 1 0-.007 5.21 2.605 2.605 0 0 0 .008-5.21m9.117 0a2.605 2.605 0 1 0-.007 5.21 2.605 2.605 0 0 0 .007-5.21m-14.328-28.656a2.605 2.605 0 1 0-.006 5.21 2.605 2.605 0 0 0 .006-5.21m9.77 0a2.605 2.605 0 1 0-.007 5.21 2.605 2.605 0 0 0 .007-5.21m-4.56 9.77a2.605 2.605 0 1 0-.006 5.21 2.605 2.605 0 0 0 .007-5.21m9.117 0a2.605 2.605 0 1 0-.006 5.21 2.605 2.605 0 0 0 .006-5.21m-14.328-28.657a2.605 2.605 0 1 0-.006 5.21 2.605 2.605 0 0 0 .006-5.21m9.77 0a2.606 2.606 0 1 0-.006 5.211 2.606 2.606 0 0 0 .005-5.211m-4.558 9.769a2.606 2.606 0 1 0-.006 5.212 2.606 2.606 0 0 0 .006-5.212m9.117 0a2.605 2.605 0 1 0-.006 5.21 2.605 2.605 0 0 0 .006-5.21m-14.335-24.098a2.605 2.605 0 1 0 .008-5.21 2.605 2.605 0 0 0-.008 5.21m9.77.652a2.605 2.605 0 1 0 .007-5.21 2.605 2.605 0 0 0-.007 5.21m-4.553 3.907a2.605 2.605 0 1 0-.006 5.211 2.605 2.605 0 0 0 .006-5.21m9.11 5.21a2.606 2.606 0 1 0 .008-5.212 2.606 2.606 0 0 0-.007 5.212m-9.118-18.888a2.605 2.605 0 1 0 .007-5.21 2.605 2.605 0 0 0-.007 5.21m13.685 214.924a2.606 2.606 0 1 0-.007 5.211 2.606 2.606 0 0 0 .007-5.211m-.008-14.329a2.605 2.605 0 1 0 .006-5.21 2.605 2.605 0 0 0-.006 5.21m9.776-5.21a2.605 2.605 0 1 0-.006 5.21 2.605 2.605 0 0 0 .006-5.21m-4.559 9.77a2.606 2.606 0 1 0-.005 5.21 2.606 2.606 0 0 0 .005-5.21m9.118 0a2.605 2.605 0 1 0-.006 5.21 2.605 2.605 0 0 0 .006-5.21m-14.335-23.447a2.605 2.605 0 1 0 .008-5.21 2.605 2.605 0 0 0-.008 5.21m9.77 0a2.606 2.606 0 1 0 .005-5.212 2.606 2.606 0 0 0-.006 5.212m-4.558 9.77a2.605 2.605 0 1 0 .006-5.211 2.605 2.605 0 0 0-.006 5.21m9.117 0a2.605 2.605 0 1 0 .008-5.21 2.605 2.605 0 0 0-.008 5.21M193.87 180.8a2.605 2.605 0 1 0 .006-5.21 2.605 2.605 0 0 0-.006 5.21m9.769 0a2.605 2.605 0 1 0 .006-5.21 2.605 2.605 0 0 0-.006 5.21m-4.56 9.118a2.606 2.606 0 1 0 .006-5.211 2.606 2.606 0 0 0-.005 5.21m9.118 0a2.605 2.605 0 1 0 .006-5.21 2.605 2.605 0 0 0-.006 5.21m-14.329-28.655a2.605 2.605 0 1 0 .007-5.211 2.605 2.605 0 0 0-.007 5.21m9.77 0a2.605 2.605 0 1 0 .007-5.21 2.605 2.605 0 0 0-.007 5.21m-4.56 9.77a2.605 2.605 0 1 0 .007-5.211 2.605 2.605 0 0 0-.006 5.21m9.117 0a2.605 2.605 0 1 0 .008-5.21 2.605 2.605 0 0 0-.008 5.21m-13.676-28.656a2.605 2.605 0 1 0 .006-5.21 2.605 2.605 0 0 0-.006 5.21m9.117 0a2.606 2.606 0 1 0 .006-5.211 2.606 2.606 0 0 0-.006 5.211m-4.558 9.77a2.605 2.605 0 1 0 .006-5.21 2.605 2.605 0 0 0-.006 5.21m9.769 0a2.605 2.605 0 1 0 .006-5.211 2.605 2.605 0 0 0-.006 5.21m-14.328-29.307a2.605 2.605 0 1 0 .006-5.21 2.605 2.605 0 0 0-.006 5.21m9.124-5.21a2.605 2.605 0 1 0-.007 5.21 2.605 2.605 0 0 0 .007-5.21m-4.566 14.98a2.605 2.605 0 1 0 .008-5.21 2.605 2.605 0 0 0-.008 5.21m9.776-5.211a2.605 2.605 0 1 0-.006 5.21 2.605 2.605 0 0 0 .006-5.21m-14.327-28.657a2.606 2.606 0 1 0-.007 5.212 2.606 2.606 0 0 0 .007-5.212m9.118 0a2.605 2.605 0 1 0-.008 5.21 2.605 2.605 0 0 0 .008-5.21m-4.56 9.77a2.606 2.606 0 1 0-.006 5.21 2.606 2.606 0 0 0 .007-5.21m9.769 0a2.605 2.605 0 1 0-.007 5.21 2.605 2.605 0 0 0 .007-5.21m-14.33-28.658a2.605 2.605 0 1 0-.006 5.211 2.605 2.605 0 0 0 .006-5.21m9.118 0a2.605 2.605 0 1 0-.006 5.21 2.605 2.605 0 0 0 .006-5.21m-4.558 9.117a2.605 2.605 0 1 0-.008 5.21 2.605 2.605 0 0 0 .008-5.21m9.769 0a2.606 2.606 0 1 0-.006 5.212 2.606 2.606 0 0 0 .006-5.212m-14.329-28.656a2.605 2.605 0 1 0-.006 5.21 2.605 2.605 0 0 0 .006-5.21m9.118 0a2.605 2.605 0 1 0-.006 5.21 2.605 2.605 0 0 0 .006-5.21m-4.559 9.77a2.605 2.605 0 1 0-.006 5.21 2.605 2.605 0 0 0 .006-5.21m9.77 0a2.605 2.605 0 1 0-.007 5.21 2.605 2.605 0 0 0 .007-5.21m-14.329-28.657a2.605 2.605 0 1 0-.006 5.21 2.605 2.605 0 0 0 .006-5.21m9.112 5.21a2.605 2.605 0 1 0 .006-5.211 2.605 2.605 0 0 0-.006 5.21m-4.553 4.56a2.606 2.606 0 1 0-.005 5.211 2.606 2.606 0 0 0 .005-5.211m9.77 0a2.605 2.605 0 1 0-.007 5.21 2.605 2.605 0 0 0 .006-5.21M194.52 27.749a2.605 2.605 0 1 0 .007-5.21 2.605 2.605 0 0 0-.007 5.21m4.56 9.118a2.605 2.605 0 1 0 .007-5.21 2.605 2.605 0 0 0-.007 5.21m9.769 0a2.605 2.605 0 1 0 .007-5.21 2.605 2.605 0 0 0-.007 5.21m4.566 176.497a2.606 2.606 0 1 0-.006 5.212 2.606 2.606 0 0 0 .006-5.212m-.007-13.677a2.605 2.605 0 1 0 .006-5.21 2.605 2.605 0 0 0-.006 5.21m9.125-5.21a2.605 2.605 0 1 0-.007 5.21 2.605 2.605 0 0 0 .007-5.21m-4.56 9.77a2.605 2.605 0 1 0-.006 5.21 2.605 2.605 0 0 0 .007-5.21m9.769 0a2.605 2.605 0 1 0-.007 5.209 2.605 2.605 0 0 0 .007-5.21M213.407 180.8a2.605 2.605 0 1 0 .007-5.21 2.605 2.605 0 0 0-.007 5.21m9.77 0a2.605 2.605 0 1 0 .006-5.21 2.605 2.605 0 0 0-.007 5.21m-5.21 9.118a2.605 2.605 0 1 0 .007-5.21 2.605 2.605 0 0 0-.007 5.21m9.776-5.21a2.605 2.605 0 1 0-.007 5.21 2.605 2.605 0 0 0 .007-5.21m-14.335-23.446a2.605 2.605 0 1 0 .007-5.21 2.605 2.605 0 0 0-.007 5.21m9.77 0a2.605 2.605 0 1 0 .006-5.21 2.605 2.605 0 0 0-.007 5.21m-5.21 9.769a2.605 2.605 0 1 0 .007-5.21 2.605 2.605 0 0 0-.007 5.21m9.769 0a2.606 2.606 0 1 0 .006-5.212 2.606 2.606 0 0 0-.006 5.212m-14.328-28.657a2.605 2.605 0 1 0 .007-5.21 2.605 2.605 0 0 0-.007 5.21m9.769 0a2.605 2.605 0 1 0 .006-5.21 2.605 2.605 0 0 0-.006 5.21m-5.21 9.77a2.605 2.605 0 1 0 .006-5.211 2.605 2.605 0 0 0-.006 5.21m9.769 0a2.605 2.605 0 1 0 .007-5.21 2.605 2.605 0 0 0-.007 5.21m-14.328-29.307a2.605 2.605 0 1 0 .006-5.21 2.605 2.605 0 0 0-.006 5.21m9.77.651a2.605 2.605 0 1 0 .006-5.21 2.605 2.605 0 0 0-.007 5.21m-5.21 9.118a2.606 2.606 0 1 0 .006-5.21 2.606 2.606 0 0 0-.006 5.21m9.769 0a2.606 2.606 0 1 0 .006-5.211 2.606 2.606 0 0 0-.006 5.211m-14.321-33.867a2.605 2.605 0 1 0-.007 5.21 2.605 2.605 0 0 0 .007-5.21m9.77 0a2.606 2.606 0 1 0-.007 5.212 2.606 2.606 0 0 0 .006-5.212m-5.21 9.77a2.605 2.605 0 1 0-.007 5.21 2.605 2.605 0 0 0 .007-5.21m9.77 0a2.605 2.605 0 1 0-.008 5.21 2.605 2.605 0 0 0 .007-5.21M213.414 79.85a2.605 2.605 0 1 0-.007 5.21 2.605 2.605 0 0 0 .007-5.21m9.769 0a2.605 2.605 0 1 0-.007 5.21 2.605 2.605 0 0 0 .007-5.21m-5.21 9.118a2.605 2.605 0 1 0-.006 5.211 2.605 2.605 0 0 0 .006-5.21m9.769 0a2.605 2.605 0 1 0-.007 5.21 2.605 2.605 0 0 0 .007-5.21m-14.329-28.657a2.605 2.605 0 1 0-.006 5.21 2.605 2.605 0 0 0 .006-5.21m9.77 0a2.605 2.605 0 1 0-.007 5.21 2.605 2.605 0 0 0 .007-5.21m-5.21 9.77a2.605 2.605 0 1 0-.007 5.21 2.605 2.605 0 0 0 .007-5.21m9.762 5.21a2.605 2.605 0 1 0 .007-5.211 2.605 2.605 0 0 0-.007 5.21m-14.328-28.656a2.605 2.605 0 1 0 .007-5.21 2.605 2.605 0 0 0-.007 5.21m9.77 0a2.605 2.605 0 1 0 .006-5.21 2.605 2.605 0 0 0-.007 5.21m-5.21 9.77a2.605 2.605 0 1 0 .006-5.212 2.605 2.605 0 0 0-.006 5.211M232.3 175.59a2.606 2.606 0 1 0-.006 5.211 2.606 2.606 0 0 0 .006-5.211m5.21 9.118a2.605 2.605 0 1 0-.007 5.21 2.605 2.605 0 0 0 .007-5.21m-5.217-23.446a2.606 2.606 0 1 0 .006-5.212 2.606 2.606 0 0 0-.006 5.212m9.776-5.21a2.606 2.606 0 1 0-.006 5.21 2.606 2.606 0 0 0 .006-5.21m-4.559 9.769a2.606 2.606 0 1 0-.006 5.21 2.606 2.606 0 0 0 .006-5.21m9.118 0a2.605 2.605 0 1 0-.007 5.21 2.605 2.605 0 0 0 .007-5.21m-14.335-23.447a2.605 2.605 0 1 0 .007-5.21 2.605 2.605 0 0 0-.007 5.21m9.769 0a2.605 2.605 0 1 0 .007-5.21 2.605 2.605 0 0 0-.007 5.21m-4.558 9.77a2.605 2.605 0 1 0 .007-5.21 2.605 2.605 0 0 0-.007 5.21m9.124-5.21a2.605 2.605 0 1 0-.007 5.209 2.605 2.605 0 0 0 .007-5.21m-14.335-23.446a2.605 2.605 0 1 0 .006-5.21 2.605 2.605 0 0 0-.006 5.21m9.77 0a2.605 2.605 0 1 0 .006-5.21 2.605 2.605 0 0 0-.007 5.21m-4.558 9.118a2.605 2.605 0 1 0 .007-5.21 2.605 2.605 0 0 0-.007 5.21m9.117 0a2.605 2.605 0 1 0 .007-5.21 2.605 2.605 0 0 0-.007 5.21M232.3 98.738a2.606 2.606 0 1 0-.006 5.212 2.606 2.606 0 0 0 .006-5.212m9.77 0a2.604 2.604 0 1 0 2.602 2.609 2.605 2.605 0 0 0-2.603-2.609m-4.559 9.77a2.605 2.605 0 1 0-.007 5.21 2.605 2.605 0 0 0 .007-5.21m9.111 5.21a2.605 2.605 0 1 0 .007-5.21 2.605 2.605 0 0 0-.007 5.21m-14.32-33.868a2.605 2.605 0 1 0-.007 5.21 2.605 2.605 0 0 0 .007-5.21m9.762 5.21a2.605 2.605 0 1 0 .007-5.21 2.605 2.605 0 0 0-.007 5.21m-4.559 9.118a2.605 2.605 0 1 0 .006-5.21 2.605 2.605 0 0 0-.006 5.21m-5.21-28.656a2.606 2.606 0 1 0 .006-5.211 2.606 2.606 0 0 0-.006 5.211m19.545 71.641a2.605 2.605 0 1 0-.006 5.21 2.605 2.605 0 0 0 .006-5.21m4.56 9.77a2.605 2.605 0 1 0-.008 5.21 2.605 2.605 0 0 0 .008-5.21m-4.567-23.447a2.605 2.605 0 1 0 .007-5.21 2.605 2.605 0 0 0-.007 5.21m4.56 9.118a2.605 2.605 0 1 0 .006-5.21 2.605 2.605 0 0 0-.006 5.21m-4.56-28.656a2.605 2.605 0 1 0 .007-5.211 2.605 2.605 0 0 0-.007 5.21"/></g></svg>