<svg xmlns="http://www.w3.org/2000/svg" width="26" height="25" viewBox="0 0 26 25"><path fill="#F57077" stroke="#F57077" d="M11.843 2.109a10.82 10.82 0 0 1 6.659 2.08.294.294 0 1 1-.339.477 10.256 10.256 0 0 0-8.542-1.668C4.13 4.378.807 9.962 2.185 15.465c1.377 5.503 6.939 8.833 12.43 7.452 5.49-1.38 8.822-6.954 7.445-12.457a.294.294 0 0 1 .368-.372.293.293 0 0 1 .199.234c1.454 5.81-2.078 11.705-7.875 13.163-5.798 1.458-11.68-2.072-13.134-7.883C.163 9.792 3.686 3.888 9.483 2.43c.78-.196 1.572-.301 2.36-.321zm12.558.577a.293.293 0 0 1 .22.505c-3.245 3.402-8.156 8.893-11.415 12.31a.292.292 0 0 1-.402.019l-4.976-4.4a.294.294 0 1 1 .384-.44l4.765 4.216c3.245-3.413 8.018-8.748 11.223-12.109a.292.292 0 0 1 .201-.1z"/></svg>